# xmcd CD database file
#
# Track frame offsets:
#	150
#	8255
#	33710
#	63202
#	91442
#	110325
#	133515
#	170805
#	194000
#
# Disc length: 3151 seconds
#
# Revision: 3
# Processed by: cddbd v1.5.1PL0 Copyright (c) Steve Scherf et al.
# Submitted via: CDex 1.51
#
DISCID=740c4d09
DTITLE=Naftule's Dream - Search for the Golden Dreydl
DYEAR=1997
DGENRE=
TTITLE0=Black Prelude
TTITLE1=Oy Tate (Oh Father)
TTITLE2=The Unseen
TTITLE3=The Farshtunkene Hobo (The Stinky Hobo)
TTITLE4=Search for the Golden Dreydl
TTITLE5=So Nu
TTITLE6=The Spinoza of market Street
TTITLE7=The Crooked Walk
TTITLE8=Nakhes Fun Kinder (Joy From Children)
EXTD=YEAR: 1997
EXTT0=
EXTT1=
EXTT2=
EXTT3=
EXTT4=
EXTT5=
EXTT6=
EXTT7=
EXTT8=
PLAYORDER=
